<svg xmlns="http://www.w3.org/2000/svg" width="500" height="500" style="background:#0d0d0d;font-family:JetBrains Mono,monospace">
    <text x="250" y="25" text-anchor="middle" fill="#e8e4dc" font-size="14" font-weight="bold">ANTENNA GAIN PATTERN — System Directivity</text><circle cx="250" cy="270" r="51" fill="none" stroke="#1a1a1a" stroke-width="1"/><text x="304.42857142857144" y="267" fill="#333" font-size="8">0 dB (50%)</text><circle cx="250" cy="270" r="77" fill="none" stroke="#1a1a1a" stroke-width="1"/><text x="330.14285714285717" y="267" fill="#333" font-size="8">+3 dB (60%)</text><circle cx="250" cy="270" r="103" fill="none" stroke="#1a1a1a" stroke-width="1"/><text x="355.85714285714283" y="267" fill="#333" font-size="8">+6 dB (70%)</text><circle cx="250" cy="270" r="129" fill="none" stroke="#1a1a1a" stroke-width="1"/><text x="381.57142857142856" y="267" fill="#333" font-size="8">+9 dB (80%)</text><circle cx="250" cy="270" r="154" fill="none" stroke="#1a1a1a" stroke-width="1"/><text x="407.28571428571433" y="267" fill="#333" font-size="8">+12 dB (90%)</text><line x1="250" y1="270" x2="250" y2="90" stroke="#111" stroke-width="1"/><circle cx="250" cy="219" r="6" fill="#60a5fa" opacity="0.8"/><text x="250" y="65" text-anchor="middle" fill="#60a5fa" font-size="9">C:A</text><text x="250" y="77" text-anchor="middle" fill="#6b6b6b" font-size="8">50% (40)</text><line x1="250" y1="270" x2="347" y2="119" stroke="#111" stroke-width="1"/><circle cx="284" cy="217" r="6" fill="#fbbf24" opacity="0.8"/><text x="361" y="98" text-anchor="middle" fill="#fbbf24" font-size="9">C:B</text><text x="361" y="110" text-anchor="middle" fill="#6b6b6b" font-size="8">55% (255)</text><line x1="250" y1="270" x2="414" y2="195" stroke="#111" stroke-width="1"/><circle cx="302" cy="246" r="6" fill="#9ca3af" opacity="0.8"/><text x="436" y="185" text-anchor="middle" fill="#9ca3af" font-size="9">C:C</text><text x="436" y="197" text-anchor="middle" fill="#6b6b6b" font-size="8">52% (376)</text><line x1="250" y1="270" x2="428" y2="296" stroke="#111" stroke-width="1"/><circle cx="315" cy="279" r="6" fill="#a78bfa" opacity="0.8"/><text x="453" y="299" text-anchor="middle" fill="#a78bfa" font-size="9">C:S</text><text x="453" y="311" text-anchor="middle" fill="#6b6b6b" font-size="8">56% (9)</text><line x1="250" y1="270" x2="386" y2="388" stroke="#111" stroke-width="1"/><circle cx="259" cy="278" r="6" fill="#60a5fa" opacity="0.8"/><text x="405" y="404" text-anchor="middle" fill="#60a5fa" font-size="9">S:A</text><text x="405" y="416" text-anchor="middle" fill="#6b6b6b" font-size="8">35% (26)</text><line x1="250" y1="270" x2="301" y2="443" stroke="#111" stroke-width="1"/><circle cx="250" cy="270" r="6" fill="#34d399" opacity="0.8"/><text x="308" y="467" text-anchor="middle" fill="#34d399" font-size="9">S:AF</text><text x="308" y="479" text-anchor="middle" fill="#6b6b6b" font-size="8">20% (5)</text><line x1="250" y1="270" x2="199" y2="443" stroke="#111" stroke-width="1"/><circle cx="241" cy="302" r="6" fill="#fbbf24" opacity="0.8"/><text x="192" y="467" text-anchor="middle" fill="#fbbf24" font-size="9">S:B</text><text x="192" y="479" text-anchor="middle" fill="#6b6b6b" font-size="8">43% (112)</text><line x1="250" y1="270" x2="114" y2="388" stroke="#111" stroke-width="1"/><circle cx="196" cy="317" r="6" fill="#fb923c" opacity="0.8"/><text x="95" y="404" text-anchor="middle" fill="#fb923c" font-size="9">S:BF</text><text x="95" y="416" text-anchor="middle" fill="#6b6b6b" font-size="8">58% (135)</text><line x1="250" y1="270" x2="72" y2="296" stroke="#111" stroke-width="1"/><circle cx="208" cy="276" r="6" fill="#9ca3af" opacity="0.8"/><text x="47" y="299" text-anchor="middle" fill="#9ca3af" font-size="9">S:C</text><text x="47" y="311" text-anchor="middle" fill="#6b6b6b" font-size="8">47% (159)</text><line x1="250" y1="270" x2="86" y2="195" stroke="#111" stroke-width="1"/><circle cx="187" cy="241" r="6" fill="#f87171" opacity="0.8"/><text x="64" y="185" text-anchor="middle" fill="#f87171" font-size="9">S:F</text><text x="64" y="197" text-anchor="middle" fill="#6b6b6b" font-size="8">57% (126)</text><line x1="250" y1="270" x2="153" y2="119" stroke="#111" stroke-width="1"/><circle cx="226" cy="232" r="6" fill="#a78bfa" opacity="0.8"/><text x="139" y="98" text-anchor="middle" fill="#a78bfa" font-size="9">S:S</text><text x="139" y="110" text-anchor="middle" fill="#6b6b6b" font-size="8">48% (21)</text><path d="M 250,219 L 284,217 L 302,246 L 315,279 L 259,278 L 250,270 L 241,302 L 196,317 L 208,276 L 187,241 L 226,232 Z" fill="#a78bfa" fill-opacity="0.08" stroke="#a78bfa" stroke-width="1.5" stroke-opacity="0.5"/><circle cx="250" cy="270" r="3" fill="#e8e4dc"/><text x="250" y="485" text-anchor="middle" fill="#6b6b6b" font-size="9">Radius = accuracy gain above noise floor (50%). Wider lobes = stronger edge.</text></svg>