<svg xmlns="http://www.w3.org/2000/svg" width="700" height="350" style="background:#0d0d0d;font-family:JetBrains Mono,monospace">
    <text x="350" y="25" text-anchor="middle" fill="#e8e4dc" font-size="14" font-weight="bold">SPECTRAL RESPONSE — Crypto Accuracy by Hour (UTC)</text><line x1="60" y1="290" x2="670" y2="290" stroke="#111" stroke-width="1"/><text x="55" y="294" text-anchor="end" fill="#6b6b6b" font-size="9">0%</text><line x1="60" y1="266" x2="670" y2="266" stroke="#111" stroke-width="1"/><text x="55" y="270" text-anchor="end" fill="#6b6b6b" font-size="9">10%</text><line x1="60" y1="241" x2="670" y2="241" stroke="#111" stroke-width="1"/><text x="55" y="245" text-anchor="end" fill="#6b6b6b" font-size="9">20%</text><line x1="60" y1="216" x2="670" y2="216" stroke="#111" stroke-width="1"/><text x="55" y="220" text-anchor="end" fill="#6b6b6b" font-size="9">30%</text><line x1="60" y1="192" x2="670" y2="192" stroke="#111" stroke-width="1"/><text x="55" y="196" text-anchor="end" fill="#6b6b6b" font-size="9">40%</text><line x1="60" y1="168" x2="670" y2="168" stroke="#111" stroke-width="1"/><text x="55" y="172" text-anchor="end" fill="#6b6b6b" font-size="9">50%</text><line x1="60" y1="143" x2="670" y2="143" stroke="#111" stroke-width="1"/><text x="55" y="147" text-anchor="end" fill="#6b6b6b" font-size="9">60%</text><line x1="60" y1="119" x2="670" y2="119" stroke="#111" stroke-width="1"/><text x="55" y="123" text-anchor="end" fill="#6b6b6b" font-size="9">70%</text><line x1="60" y1="94" x2="670" y2="94" stroke="#111" stroke-width="1"/><text x="55" y="98" text-anchor="end" fill="#6b6b6b" font-size="9">80%</text><line x1="60" y1="70" x2="670" y2="70" stroke="#111" stroke-width="1"/><text x="55" y="74" text-anchor="end" fill="#6b6b6b" font-size="9">90%</text><line x1="60" y1="45" x2="670" y2="45" stroke="#111" stroke-width="1"/><text x="55" y="49" text-anchor="end" fill="#6b6b6b" font-size="9">100%</text><line x1="60" y1="168" x2="670" y2="168" stroke="#fbbf24" stroke-width="1" stroke-dasharray="4,4"/><text x="675" y="172" fill="#fbbf24" font-size="8">0 dB</text><rect x="64" y="168" width="18" height="51" fill="#dc2626" opacity="0.7" rx="2"/><text x="73" y="305" text-anchor="middle" fill="#6b6b6b" font-size="8">00</text><text x="73" y="164" text-anchor="middle" fill="#dc2626" font-size="7">29%</text><text x="73" y="154" text-anchor="middle" fill="#333" font-size="6">n=24</text><rect x="115" y="157" width="18" height="10" fill="#4ade80" opacity="0.7" rx="2"/><text x="124" y="305" text-anchor="middle" fill="#6b6b6b" font-size="8">02</text><text x="124" y="153" text-anchor="middle" fill="#4ade80" font-size="7">54%</text><text x="124" y="143" text-anchor="middle" fill="#333" font-size="6">n=24</text><rect x="140" y="153" width="18" height="15" fill="#4ade80" opacity="0.7" rx="2"/><text x="149" y="305" text-anchor="middle" fill="#6b6b6b" font-size="8">03</text><text x="149" y="149" text-anchor="middle" fill="#4ade80" font-size="7">56%</text><text x="149" y="139" text-anchor="middle" fill="#333" font-size="6">n=66</text><rect x="165" y="168" width="18" height="33" fill="#f87171" opacity="0.7" rx="2"/><text x="174" y="305" text-anchor="middle" fill="#6b6b6b" font-size="8">04</text><text x="174" y="164" text-anchor="middle" fill="#f87171" font-size="7">36%</text><text x="174" y="154" text-anchor="middle" fill="#333" font-size="6">n=22</text><rect x="216" y="163" width="18" height="5" fill="#4ade80" opacity="0.7" rx="2"/><text x="225" y="305" text-anchor="middle" fill="#6b6b6b" font-size="8">06</text><text x="225" y="159" text-anchor="middle" fill="#4ade80" font-size="7">52%</text><text x="225" y="149" text-anchor="middle" fill="#333" font-size="6">n=27</text><rect x="242" y="168" width="18" height="2" fill="#f87171" opacity="0.7" rx="2"/><text x="251" y="305" text-anchor="middle" fill="#6b6b6b" font-size="8">07</text><text x="251" y="164" text-anchor="middle" fill="#f87171" font-size="7">49%</text><text x="251" y="154" text-anchor="middle" fill="#333" font-size="6">n=59</text><rect x="267" y="168" width="18" height="37" fill="#f87171" opacity="0.7" rx="2"/><text x="276" y="305" text-anchor="middle" fill="#6b6b6b" font-size="8">08</text><text x="276" y="164" text-anchor="middle" fill="#f87171" font-size="7">35%</text><text x="276" y="154" text-anchor="middle" fill="#333" font-size="6">n=23</text><rect x="318" y="168" width="18" height="15" fill="#f87171" opacity="0.7" rx="2"/><text x="327" y="305" text-anchor="middle" fill="#6b6b6b" font-size="8">10</text><text x="327" y="164" text-anchor="middle" fill="#f87171" font-size="7">44%</text><text x="327" y="154" text-anchor="middle" fill="#333" font-size="6">n=32</text><rect x="369" y="168" width="18" height="71" fill="#dc2626" opacity="0.7" rx="2"/><text x="378" y="305" text-anchor="middle" fill="#6b6b6b" font-size="8">12</text><text x="378" y="164" text-anchor="middle" fill="#dc2626" font-size="7">21%</text><text x="378" y="154" text-anchor="middle" fill="#333" font-size="6">n=24</text><rect x="394" y="153" width="18" height="15" fill="#4ade80" opacity="0.7" rx="2"/><text x="403" y="305" text-anchor="middle" fill="#6b6b6b" font-size="8">13</text><text x="403" y="149" text-anchor="middle" fill="#4ade80" font-size="7">56%</text><text x="403" y="139" text-anchor="middle" fill="#333" font-size="6">n=91</text><rect x="420" y="108" width="18" height="60" fill="#22d3ee" opacity="0.7" rx="2"/><text x="429" y="305" text-anchor="middle" fill="#6b6b6b" font-size="8">14</text><text x="429" y="104" text-anchor="middle" fill="#22d3ee" font-size="7">74%</text><text x="429" y="94" text-anchor="middle" fill="#333" font-size="6">n=39</text><rect x="445" y="135" width="18" height="33" fill="#4ade80" opacity="0.7" rx="2"/><text x="454" y="305" text-anchor="middle" fill="#6b6b6b" font-size="8">15</text><text x="454" y="131" text-anchor="middle" fill="#4ade80" font-size="7">63%</text><text x="454" y="121" text-anchor="middle" fill="#333" font-size="6">n=30</text><rect x="470" y="152" width="18" height="15" fill="#4ade80" opacity="0.7" rx="2"/><text x="479" y="305" text-anchor="middle" fill="#6b6b6b" font-size="8">16</text><text x="479" y="148" text-anchor="middle" fill="#4ade80" font-size="7">56%</text><text x="479" y="138" text-anchor="middle" fill="#333" font-size="6">n=16</text><rect x="521" y="54" width="18" height="114" fill="#22d3ee" opacity="0.7" rx="2"/><text x="530" y="305" text-anchor="middle" fill="#6b6b6b" font-size="8">18</text><text x="530" y="50" text-anchor="middle" fill="#22d3ee" font-size="7">96%</text><text x="530" y="40" text-anchor="middle" fill="#333" font-size="6">n=28</text><rect x="547" y="96" width="18" height="71" fill="#22d3ee" opacity="0.7" rx="2"/><text x="556" y="305" text-anchor="middle" fill="#6b6b6b" font-size="8">19</text><text x="556" y="92" text-anchor="middle" fill="#22d3ee" font-size="7">79%</text><text x="556" y="82" text-anchor="middle" fill="#333" font-size="6">n=62</text><rect x="572" y="168" width="18" height="61" fill="#dc2626" opacity="0.7" rx="2"/><text x="581" y="305" text-anchor="middle" fill="#6b6b6b" font-size="8">20</text><text x="581" y="164" text-anchor="middle" fill="#dc2626" font-size="7">25%</text><text x="581" y="154" text-anchor="middle" fill="#333" font-size="6">n=28</text><rect x="623" y="168" width="18" height="97" fill="#dc2626" opacity="0.7" rx="2"/><text x="632" y="305" text-anchor="middle" fill="#6b6b6b" font-size="8">22</text><text x="632" y="164" text-anchor="middle" fill="#dc2626" font-size="7">10%</text><text x="632" y="154" text-anchor="middle" fill="#333" font-size="6">n=29</text><rect x="648" y="150" width="18" height="17" fill="#4ade80" opacity="0.7" rx="2"/><text x="657" y="305" text-anchor="middle" fill="#6b6b6b" font-size="8">23</text><text x="657" y="146" text-anchor="middle" fill="#4ade80" font-size="7">57%</text><text x="657" y="136" text-anchor="middle" fill="#333" font-size="6">n=56</text><text x="60" y="342" fill="#6b6b6b" font-size="9">Green = gain (above 50%). Red = attenuation (anti-signal). Cyan = strong signal (&gt;70%). Deep red = strong anti-signal (&lt;30%).</text><text x="60" y="330" fill="#6b6b6b" font-size="9">X = Hour (UTC). Y = Accuracy. Yellow dashed = noise floor (50% = coin flip = 0 dB).</text></svg>